<svg width="139" height="21" viewBox="0 0 139 21" fill="none" xmlns="http://www.w3.org/2000/svg">
<path d="M8.328 19.04C8.328 19.808 7.848 20.192 6.888 20.192C5.944 20.192 5.472 19.808 5.472 19.04V3.368H1.272C0.696 3.368 0.392 2.96 0.36 2.144C0.36 1.344 0.664 0.943999 1.272 0.943999H12.528C13.136 0.943999 13.424 1.344 13.392 2.144C13.392 2.96 13.104 3.368 12.528 3.368H8.328V19.04ZM24.6092 0.943999C25.0252 0.943999 25.4572 1.032 25.9052 1.208C26.3532 1.384 26.7852 1.608 27.2012 1.88H27.1772C27.5932 2.184 27.9132 2.584 28.1372 3.08C28.3612 3.56 28.4732 4.12 28.4732 4.76V16.16C28.4732 17.456 28.0412 18.424 27.1772 19.064C26.7612 19.368 26.3292 19.608 25.8812 19.784C25.4492 19.944 25.0252 20.024 24.6092 20.024H19.3772C18.9612 20.024 18.5292 19.944 18.0812 19.784C17.6492 19.608 17.2252 19.368 16.8092 19.064C16.3932 18.744 16.0732 18.352 15.8492 17.888C15.6252 17.408 15.5132 16.832 15.5132 16.16V4.76C15.5132 4.12 15.6252 3.56 15.8492 3.08C16.0732 2.584 16.3932 2.184 16.8092 1.88H16.7852C17.2012 1.608 17.6332 1.384 18.0812 1.208C18.5292 1.032 18.9612 0.943999 19.3772 0.943999H24.6092ZM24.0092 17.6C24.6012 17.6 25.0172 17.432 25.2572 17.096C25.4972 16.76 25.6172 16.384 25.6172 15.968V4.976C25.6172 4.576 25.4972 4.208 25.2572 3.872C25.0172 3.536 24.6012 3.368 24.0092 3.368H19.9772C19.3852 3.368 18.9692 3.536 18.7292 3.872C18.4892 4.208 18.3692 4.576 18.3692 4.976V15.968C18.3692 16.384 18.4892 16.76 18.7292 17.096C18.9692 17.432 19.3852 17.6 19.9772 17.6H24.0092ZM40.5795 17.6C41.1715 17.6 41.5875 17.432 41.8275 17.096C42.0675 16.76 42.1875 16.384 42.1875 15.968V4.976C42.1875 4.576 42.0675 4.208 41.8275 3.872C41.5875 3.536 41.1715 3.368 40.5795 3.368H34.9635L34.9395 19.016C34.9395 19.368 34.8035 19.648 34.5315 19.856C34.2595 20.064 33.9235 20.168 33.5235 20.168C32.5795 20.168 32.1075 19.784 32.1075 19.016V2.384C32.1075 1.808 32.2515 1.424 32.5395 1.232C32.8435 1.04 33.2035 0.943999 33.6195 0.943999H41.1795C41.5955 0.943999 42.0275 1.032 42.4755 1.208C42.9235 1.384 43.3555 1.608 43.7715 1.88H43.7475C44.1635 2.184 44.4835 2.584 44.7075 3.08C44.9315 3.56 45.0435 4.12 45.0435 4.76V16.16C45.0435 17.456 44.6115 18.424 43.7475 19.064C43.3315 19.368 42.8995 19.608 42.4515 19.784C42.0195 19.944 41.5955 20.024 41.1795 20.024H37.1475C36.8755 20.024 36.6595 19.912 36.4995 19.688C36.3555 19.464 36.2835 19.168 36.2835 18.8C36.2835 18 36.6275 17.6 37.3155 17.6H40.5795ZM54.9898 3.296L49.7338 19.424V19.4C49.6378 19.64 49.5018 19.84 49.3258 20C49.1658 20.144 48.9658 20.216 48.7258 20.216C48.5978 20.216 48.4698 20.2 48.3418 20.168C48.2298 20.152 48.1098 20.128 47.9818 20.096H48.0058C47.0938 19.808 46.7578 19.296 46.9978 18.56L52.4698 1.928C52.5498 1.672 52.6858 1.456 52.8778 1.28C53.0858 1.104 53.3258 1 53.5978 0.967999C53.8698 0.919999 54.1338 0.887999 54.3898 0.871999C54.6458 0.839999 54.8458 0.823999 54.9898 0.823999C55.1338 0.823999 55.3338 0.839999 55.5898 0.871999C55.8458 0.887999 56.1098 0.911999 56.3818 0.943999C56.6058 0.975999 56.8218 1.096 57.0298 1.304C57.2538 1.512 57.4218 1.72 57.5338 1.928C58.4298 4.68 59.3338 7.456 60.2458 10.256C61.1738 13.04 62.0858 15.808 62.9818 18.56C63.2058 19.296 62.8698 19.808 61.9738 20.096C61.8458 20.128 61.7258 20.152 61.6138 20.168C61.5178 20.2 61.4058 20.216 61.2778 20.216C61.0538 20.216 60.8458 20.144 60.6538 20C60.4778 19.84 60.3498 19.64 60.2698 19.4V19.424L54.9898 3.296ZM56.7898 14.24C56.7898 14.752 56.6058 15.192 56.2378 15.56C55.8858 15.912 55.4538 16.088 54.9418 16.088C54.4298 16.088 53.9978 15.912 53.6458 15.56C53.2938 15.192 53.1178 14.752 53.1178 14.24C53.1178 13.728 53.2938 13.296 53.6458 12.944C53.9978 12.576 54.4298 12.392 54.9418 12.392C55.4538 12.392 55.8858 12.576 56.2378 12.944C56.6058 13.296 56.7898 13.728 56.7898 14.24ZM72.1389 19.04C72.1389 19.808 71.6669 20.192 70.7229 20.192C69.7789 20.192 69.3069 19.808 69.3069 19.04V12.656L63.9309 2.432C63.8349 2.224 63.7869 2.008 63.7869 1.784C63.7869 1.32 64.0589 0.975999 64.6029 0.751999H64.5789C64.9309 0.623999 65.2109 0.559999 65.4189 0.559999C65.8349 0.559999 66.1549 0.767999 66.3789 1.184L70.7469 9.392C71.0669 8.784 71.4109 8.136 71.7789 7.448C72.1469 6.744 72.5149 6.032 72.8829 5.312C73.2669 4.592 73.6429 3.88 74.0109 3.176C74.3789 2.472 74.7309 1.808 75.0669 1.184C75.1949 0.991999 75.3309 0.839999 75.4749 0.727999C75.6349 0.615999 75.8269 0.559999 76.0509 0.559999C76.2749 0.559999 76.5389 0.623999 76.8429 0.751999H76.8189C77.3789 0.991999 77.6589 1.344 77.6589 1.808C77.6589 1.904 77.6509 2.008 77.6349 2.12C77.6189 2.216 77.5789 2.32 77.5149 2.432C77.3709 2.72 77.1869 3.072 76.9629 3.488C76.7549 3.904 76.4509 4.488 76.0509 5.24C75.6669 5.976 75.1629 6.944 74.5389 8.144C73.9149 9.328 73.1149 10.856 72.1389 12.728V19.04ZM88.7679 20.024C88.1759 20.024 87.7759 19.872 87.5679 19.568C87.3599 19.264 87.2559 18.928 87.2559 18.56V1.976C87.2559 1.208 87.7199 0.823999 88.6479 0.823999C89.6079 0.823999 90.0879 1.208 90.0879 1.976V17.6H98.1039C98.6799 17.6 98.9679 17.992 98.9679 18.776C98.9999 19.608 98.7119 20.024 98.1039 20.024H88.7679ZM104.13 18.992C104.13 19.76 103.65 20.144 102.69 20.144C101.746 20.144 101.274 19.76 101.274 18.992V1.976C101.274 1.208 101.746 0.823999 102.69 0.823999C103.65 0.823999 104.13 1.208 104.13 1.976V18.992ZM117.047 0.943999C117.463 0.943999 117.895 1.032 118.343 1.208C118.791 1.384 119.223 1.608 119.639 1.88H119.615C120.031 2.184 120.351 2.584 120.575 3.08C120.799 3.56 120.911 4.12 120.911 4.76V16.16C120.911 17.456 120.479 18.424 119.615 19.064C119.199 19.368 118.767 19.608 118.319 19.784C117.887 19.944 117.463 20.024 117.047 20.024H111.815C111.399 20.024 110.967 19.944 110.519 19.784C110.087 19.608 109.663 19.368 109.247 19.064C108.831 18.744 108.511 18.352 108.287 17.888C108.063 17.408 107.951 16.832 107.951 16.16V4.76C107.951 4.12 108.063 3.56 108.287 3.08C108.511 2.584 108.831 2.184 109.247 1.88H109.223C109.639 1.608 110.071 1.384 110.519 1.208C110.967 1.032 111.399 0.943999 111.815 0.943999H117.047ZM116.447 17.6C117.039 17.6 117.455 17.432 117.695 17.096C117.935 16.76 118.055 16.384 118.055 15.968V4.976C118.055 4.576 117.935 4.208 117.695 3.872C117.455 3.536 117.039 3.368 116.447 3.368H112.415C111.823 3.368 111.407 3.536 111.167 3.872C110.927 4.208 110.807 4.576 110.807 4.976V15.968C110.807 16.384 110.927 16.76 111.167 17.096C111.407 17.432 111.823 17.6 112.415 17.6H116.447ZM135.177 1.976C135.177 1.208 135.649 0.823999 136.593 0.823999C137.537 0.823999 138.009 1.208 138.009 1.976V18.536C138.009 19.096 137.713 19.504 137.121 19.76H137.145C136.889 19.872 136.617 19.96 136.329 20.024C136.041 20.088 135.761 20.12 135.489 20.12C135.281 20.12 135.065 20.096 134.841 20.048C134.617 20.016 134.401 19.96 134.193 19.88C134.001 19.784 133.817 19.664 133.641 19.52C133.481 19.36 133.353 19.168 133.257 18.944L128.049 5.96L127.401 6.032V18.992C127.401 19.76 126.921 20.144 125.961 20.144C125.017 20.144 124.545 19.76 124.545 18.992V2.456C124.545 1.8 124.833 1.36 125.409 1.136C125.937 0.927999 126.497 0.823999 127.089 0.823999C127.505 0.823999 127.921 0.911999 128.337 1.088C128.769 1.248 129.097 1.56 129.321 2.024L134.505 15.032L135.177 14.96V1.976Z" fill="#263140"/>
</svg>
